<?xml version="1.0" encoding="UTF-8"?>
<svg id="Layer_2" data-name="Layer 2" xmlns="http://www.w3.org/2000/svg" viewBox="0 0 518.88 97.75">
  <defs>
    <style>
      .cls-1 {
        fill: none;
        stroke: #fff;
        stroke-miterlimit: 10;
        stroke-width: 3px;
      }

      .cls-2 {
        fill: #fff;
      }
    </style>
  </defs>
  <g id="Text">
    <g>
      <g>
        <path class="cls-2" d="M67.82,65.09c-2.03,1.13-4.18,1.97-6.43,2.5s-4.52.8-6.82.8c-2.77,0-5.3-.45-7.6-1.35-2.3-.9-4.29-2.17-5.97-3.8-1.68-1.63-2.99-3.59-3.93-5.88-.93-2.28-1.4-4.81-1.4-7.58s.49-5.34,1.47-7.62c.98-2.28,2.34-4.23,4.07-5.85,1.73-1.62,3.75-2.88,6.05-3.78,2.3-.9,4.78-1.35,7.45-1.35,2.33,0,4.58.35,6.73,1.05s4.07,1.9,5.77,3.6l-3.15,3.3c-1.2-1.3-2.66-2.3-4.38-3-1.72-.7-3.48-1.05-5.27-1.05-2.03,0-3.92.37-5.65,1.1-1.73.73-3.24,1.75-4.52,3.05-1.28,1.3-2.28,2.85-3,4.65-.72,1.8-1.07,3.77-1.07,5.9s.36,4.05,1.07,5.85c.72,1.8,1.72,3.36,3,4.68,1.28,1.32,2.82,2.34,4.62,3.07,1.8.73,3.78,1.1,5.95,1.1,1.43,0,2.93-.17,4.5-.52,1.57-.35,3-.86,4.3-1.52v-10.85h-8.15v-3.9h12.35v17.4Z"/>
        <path class="cls-2" d="M76.62,32.09h22.25v3.9h-18.05v11.1h16.85v3.9h-16.85v12.6h18.95v3.9h-23.15v-35.4Z"/>
        <path class="cls-2" d="M130.02,35.99h-11.7v31.5h-4.2v-31.5h-11.7v-3.9h27.6v3.9Z"/>
        <path class="cls-2" d="M157.22,52.24l-13.2-20.15h5.35l9.95,16,10.25-16h5.05l-13.2,20.15v15.25h-4.2v-15.25Z"/>
        <path class="cls-2" d="M195.02,68.39c-2.7,0-5.18-.47-7.43-1.4s-4.2-2.23-5.85-3.88c-1.65-1.65-2.93-3.62-3.85-5.9-.92-2.28-1.38-4.76-1.38-7.43s.46-5.14,1.38-7.42c.92-2.28,2.2-4.25,3.85-5.9,1.65-1.65,3.6-2.94,5.85-3.88,2.25-.93,4.72-1.4,7.43-1.4s5.17.47,7.42,1.4c2.25.93,4.2,2.23,5.85,3.88s2.93,3.62,3.85,5.9c.92,2.28,1.38,4.76,1.38,7.42s-.46,5.14-1.38,7.43c-.92,2.28-2.2,4.25-3.85,5.9s-3.6,2.94-5.85,3.88-4.72,1.4-7.42,1.4ZM195.02,64.49c2.07,0,3.96-.38,5.67-1.15,1.72-.77,3.19-1.82,4.43-3.15,1.23-1.33,2.19-2.89,2.88-4.68.68-1.78,1.03-3.69,1.03-5.73s-.34-3.94-1.03-5.72c-.68-1.78-1.64-3.34-2.88-4.68-1.23-1.33-2.71-2.38-4.43-3.15-1.72-.77-3.61-1.15-5.67-1.15s-3.96.38-5.68,1.15c-1.72.77-3.19,1.82-4.43,3.15-1.23,1.33-2.19,2.89-2.88,4.68-.68,1.78-1.02,3.69-1.02,5.72s.34,3.94,1.02,5.73c.68,1.78,1.64,3.34,2.88,4.68,1.23,1.33,2.71,2.38,4.43,3.15,1.72.77,3.61,1.15,5.68,1.15Z"/>
        <path class="cls-2" d="M246.82,53.99c0,1.93-.24,3.77-.72,5.5-.48,1.73-1.25,3.26-2.3,4.58-1.05,1.32-2.43,2.37-4.12,3.15s-3.77,1.17-6.2,1.17-4.5-.39-6.2-1.17c-1.7-.78-3.07-1.83-4.12-3.15-1.05-1.32-1.82-2.84-2.3-4.58-.48-1.73-.73-3.57-.73-5.5v-21.9h4.2v21.3c0,1.43.15,2.82.45,4.15.3,1.33.8,2.52,1.5,3.55.7,1.03,1.63,1.86,2.8,2.48,1.17.62,2.63.92,4.4.92s3.23-.31,4.4-.92c1.17-.62,2.1-1.44,2.8-2.48.7-1.03,1.2-2.22,1.5-3.55.3-1.33.45-2.72.45-4.15v-21.3h4.2v21.9Z"/>
        <path class="cls-2" d="M255.47,32.09h9.05c1.7,0,3.39.1,5.07.3,1.68.2,3.19.63,4.53,1.3,1.33.67,2.42,1.64,3.25,2.92.83,1.28,1.25,3.02,1.25,5.23,0,2.6-.78,4.7-2.35,6.3-1.57,1.6-3.73,2.62-6.5,3.05l10.05,16.3h-5.15l-9.6-15.9h-5.4v15.9h-4.2v-35.4ZM259.67,47.69h3.75c1.17,0,2.38-.03,3.62-.1,1.25-.07,2.4-.28,3.45-.65,1.05-.37,1.92-.94,2.6-1.73.68-.78,1.03-1.91,1.03-3.38,0-1.27-.25-2.28-.75-3.05-.5-.77-1.16-1.36-1.98-1.77-.82-.42-1.73-.69-2.75-.82-1.02-.13-2.04-.2-3.07-.2h-5.9v11.7Z"/>
        <path class="cls-2" d="M299.92,32.09h9.05c1.7,0,3.39.1,5.07.3,1.68.2,3.19.63,4.53,1.3,1.33.67,2.42,1.64,3.25,2.92.83,1.28,1.25,3.02,1.25,5.23,0,2.6-.78,4.7-2.35,6.3-1.57,1.6-3.73,2.62-6.5,3.05l10.05,16.3h-5.15l-9.6-15.9h-5.4v15.9h-4.2v-35.4ZM304.12,47.69h3.75c1.17,0,2.38-.03,3.62-.1,1.25-.07,2.4-.28,3.45-.65,1.05-.37,1.92-.94,2.6-1.73.68-.78,1.03-1.91,1.03-3.38,0-1.27-.25-2.28-.75-3.05-.5-.77-1.16-1.36-1.98-1.77-.82-.42-1.73-.69-2.75-.82-1.02-.13-2.04-.2-3.07-.2h-5.9v11.7Z"/>
        <path class="cls-2" d="M330.47,32.09h22.25v3.9h-18.05v11.1h16.85v3.9h-16.85v12.6h18.95v3.9h-23.15v-35.4Z"/>
        <path class="cls-2" d="M376.92,38.34c-.7-1.13-1.63-1.96-2.8-2.48-1.17-.52-2.38-.77-3.65-.77-.93,0-1.85.12-2.75.35-.9.23-1.71.58-2.43,1.05-.72.47-1.29,1.08-1.72,1.85-.43.77-.65,1.67-.65,2.7,0,.8.12,1.51.38,2.12.25.62.66,1.18,1.23,1.68.57.5,1.33.97,2.3,1.4.97.43,2.15.87,3.55,1.3,1.37.43,2.69.9,3.98,1.4,1.28.5,2.42,1.13,3.4,1.9.98.77,1.77,1.73,2.35,2.88.58,1.15.88,2.59.88,4.32s-.35,3.3-1.05,4.6c-.7,1.3-1.62,2.38-2.77,3.23-1.15.85-2.48,1.48-3.98,1.9s-3.05.62-4.65.62c-1.03,0-2.07-.09-3.1-.27-1.03-.18-2.02-.47-2.97-.85-.95-.38-1.84-.88-2.68-1.5-.83-.62-1.55-1.38-2.15-2.27l3.6-2.95c.77,1.3,1.83,2.28,3.2,2.95,1.37.67,2.82,1,4.35,1,.9,0,1.81-.13,2.72-.4.92-.27,1.74-.66,2.48-1.18.73-.52,1.33-1.16,1.8-1.92.47-.77.7-1.65.7-2.65,0-1.1-.18-1.99-.55-2.68-.37-.68-.93-1.27-1.7-1.77-.77-.5-1.73-.95-2.9-1.35-1.17-.4-2.53-.87-4.1-1.4-1.27-.4-2.43-.86-3.5-1.38-1.07-.52-1.99-1.15-2.77-1.9-.78-.75-1.4-1.65-1.85-2.7-.45-1.05-.68-2.31-.68-3.77,0-1.7.33-3.18,1-4.45.67-1.27,1.57-2.33,2.7-3.18,1.13-.85,2.42-1.49,3.85-1.92,1.43-.43,2.93-.65,4.5-.65,2,0,3.82.31,5.48.92,1.65.62,3.12,1.69,4.42,3.23l-3.45,3Z"/>
        <path class="cls-2" d="M414.47,53.99c0,1.93-.24,3.77-.72,5.5-.48,1.73-1.25,3.26-2.3,4.58-1.05,1.32-2.43,2.37-4.12,3.15s-3.77,1.17-6.2,1.17-4.5-.39-6.2-1.17c-1.7-.78-3.07-1.83-4.12-3.15-1.05-1.32-1.82-2.84-2.3-4.58-.48-1.73-.73-3.57-.73-5.5v-21.9h4.2v21.3c0,1.43.15,2.82.45,4.15.3,1.33.8,2.52,1.5,3.55.7,1.03,1.63,1.86,2.8,2.48,1.17.62,2.63.92,4.4.92s3.23-.31,4.4-.92c1.17-.62,2.1-1.44,2.8-2.48.7-1.03,1.2-2.22,1.5-3.55.3-1.33.45-2.72.45-4.15v-21.3h4.2v21.9Z"/>
        <path class="cls-2" d="M423.12,32.09h4.2v31.5h16.2v3.9h-20.4v-35.4Z"/>
        <path class="cls-2" d="M467.27,35.99h-11.7v31.5h-4.2v-31.5h-11.7v-3.9h27.6v3.9Z"/>
        <path class="cls-2" d="M489.02,38.34c-.7-1.13-1.63-1.96-2.8-2.48-1.17-.52-2.38-.77-3.65-.77-.93,0-1.85.12-2.75.35-.9.23-1.71.58-2.43,1.05-.72.47-1.29,1.08-1.72,1.85-.43.77-.65,1.67-.65,2.7,0,.8.12,1.51.38,2.12.25.62.66,1.18,1.23,1.68.57.5,1.33.97,2.3,1.4.97.43,2.15.87,3.55,1.3,1.37.43,2.69.9,3.98,1.4,1.28.5,2.42,1.13,3.4,1.9.98.77,1.77,1.73,2.35,2.88.58,1.15.88,2.59.88,4.32s-.35,3.3-1.05,4.6c-.7,1.3-1.62,2.38-2.77,3.23-1.15.85-2.48,1.48-3.98,1.9s-3.05.62-4.65.62c-1.03,0-2.07-.09-3.1-.27-1.03-.18-2.02-.47-2.97-.85-.95-.38-1.84-.88-2.68-1.5-.83-.62-1.55-1.38-2.15-2.27l3.6-2.95c.77,1.3,1.83,2.28,3.2,2.95,1.37.67,2.82,1,4.35,1,.9,0,1.81-.13,2.72-.4.92-.27,1.74-.66,2.48-1.18.73-.52,1.33-1.16,1.8-1.92.47-.77.7-1.65.7-2.65,0-1.1-.18-1.99-.55-2.68-.37-.68-.93-1.27-1.7-1.77-.77-.5-1.73-.95-2.9-1.35-1.17-.4-2.53-.87-4.1-1.4-1.27-.4-2.43-.86-3.5-1.38-1.07-.52-1.99-1.15-2.77-1.9-.78-.75-1.4-1.65-1.85-2.7-.45-1.05-.68-2.31-.68-3.77,0-1.7.33-3.18,1-4.45.67-1.27,1.57-2.33,2.7-3.18,1.13-.85,2.42-1.49,3.85-1.92,1.43-.43,2.93-.65,4.5-.65,2,0,3.82.31,5.48.92,1.65.62,3.12,1.69,4.42,3.23l-3.45,3Z"/>
      </g>
      <rect class="cls-1" x="1.5" y="1.5" width="515.88" height="94.75" rx="32" ry="32"/>
    </g>
  </g>
</svg>